<?xml version="1.0" standalone="no"?>
<!DOCTYPE svg PUBLIC "-//W3C//DTD SVG 20010904//EN"
 "http://www.w3.org/TR/2001/REC-SVG-20010904/DTD/svg10.dtd">
<svg version="1.0" xmlns="http://www.w3.org/2000/svg"
 width="256.000000pt" height="256.000000pt" viewBox="0 0 256.000000 256.000000"
 preserveAspectRatio="xMidYMid meet">
<metadata>
Created by potrace 1.11, written by Peter Selinger 2001-2013
</metadata>
<g transform="translate(0.000000,256.000000) scale(0.100000,-0.100000)"
fill="#000000" stroke="none">
<path d="M542 2530 c3 -21 0 -30 -10 -30 -9 0 -12 -6 -7 -17 12 -32 10 -37
-17 -39 -16 -2 -28 2 -28 7 0 6 -4 7 -10 4 -5 -3 -10 -16 -10 -28 -1 -21 -2
-21 -23 6 -13 15 -26 27 -30 27 -13 0 -7 -35 9 -58 9 -13 13 -26 10 -29 -3 -4
4 -18 16 -31 l23 -25 -22 12 c-12 6 -24 11 -27 11 -12 0 -6 -24 11 -42 10 -12
12 -18 4 -18 -7 0 -9 -5 -6 -10 4 -6 1 -18 -6 -26 -10 -13 -14 -13 -30 2 -21
19 -43 9 -36 -17 3 -10 0 -20 -7 -22 -6 -3 1 -18 19 -37 l30 -32 -32 16 c-49
25 -51 1 -4 -45 23 -21 48 -39 56 -39 8 0 15 -4 15 -9 0 -17 -28 -19 -50 -4
-16 11 -24 12 -29 4 -5 -8 -13 -7 -27 4 -40 30 -60 9 -27 -27 17 -19 16 -19
-10 -13 -45 12 -33 -21 20 -55 65 -42 64 -91 -2 -74 -28 7 -42 -11 -18 -25 16
-8 14 -10 -10 -16 -18 -5 -26 -12 -23 -21 6 -16 -3 -18 -23 -5 -10 7 -11 13
-2 30 10 19 8 24 -9 23 -3 0 -5 22 -4 50 2 59 -6 97 -21 99 -5 1 -16 4 -24 7
-7 3 -17 -1 -21 -8 -4 -7 -12 -10 -18 -6 -13 8 -20 -33 -17 -95 2 -32 -1 -47
-8 -42 -7 4 -8 -4 -4 -24 8 -39 3 -43 -35 -32 -26 7 -31 5 -35 -12 -4 -15 -8
-17 -19 -8 -25 21 -15 -72 10 -94 l21 -18 -23 11 c-19 9 -22 8 -22 -8 0 -10 5
-23 12 -30 9 -9 9 -12 0 -12 -14 0 -18 -955 -3 -964 19 -12 42 6 35 26 -4 14
-2 18 5 14 6 -4 11 -3 11 3 0 6 -9 15 -20 21 -29 15 -25 33 5 27 25 -4 25 -4
9 14 -10 11 -14 22 -11 25 4 4 -3 18 -13 32 -21 25 -27 62 -11 62 5 0 17 -12
26 -27 l18 -27 8 23 c7 18 14 21 31 16 40 -12 43 -11 40 23 -1 17 2 32 6 32 5
0 8 20 7 45 -3 63 5 97 21 91 7 -3 14 0 16 5 2 6 15 8 30 4 29 -7 37 -31 34
-102 0 -27 4 -45 12 -48 10 -4 10 -9 1 -26 -9 -17 -8 -23 2 -30 21 -13 27 -11
39 12 7 11 19 19 30 17 11 -2 26 6 34 17 14 19 15 16 15 -40 -1 -33 -7 -76
-14 -96 -11 -33 -10 -36 7 -31 23 6 24 -15 1 -40 -9 -11 -11 -18 -5 -18 7 0
12 -7 12 -16 0 -13 3 -14 15 -4 20 16 47 6 38 -16 -3 -9 -1 -19 6 -23 8 -5 2
-18 -21 -41 l-33 -32 32 16 c39 19 43 20 43 3 0 -16 -45 -59 -79 -77 -15 -8
-20 -15 -13 -22 7 -7 17 -6 32 2 12 6 28 9 36 6 8 -3 23 3 34 14 19 19 20 19
55 -1 l35 -21 0 22 c0 21 2 21 35 -9 20 -17 41 -31 48 -31 7 0 4 5 -5 11 -10
5 -18 17 -18 26 0 15 19 14 66 -4 17 -6 17 -5 1 17 -9 14 -17 35 -17 49 0 24
0 24 22 5 l21 -19 -16 25 c-19 30 -19 116 1 112 6 -1 12 7 12 17 0 27 17 35
29 14 9 -15 10 -13 11 15 0 32 13 43 24 20 5 -10 7 -10 12 0 10 21 24 13 24
-15 0 -16 5 -35 10 -43 8 -13 10 -12 10 3 0 11 5 15 11 11 7 -4 10 -27 7 -59
-4 -52 -4 -52 13 -31 18 21 18 21 19 1 0 -11 -8 -32 -17 -45 l-17 -25 22 19
c22 19 22 19 22 -5 0 -14 -8 -35 -17 -49 -16 -22 -16 -23 1 -17 47 18 66 19
66 4 0 -9 -8 -21 -17 -26 -10 -6 -13 -11 -6 -11 7 0 28 14 48 31 32 29 35 29
35 10 0 -14 5 -19 16 -14 8 3 13 11 11 17 -18 42 -18 46 -6 46 7 0 20 -6 28
-14 9 -8 28 -18 44 -21 23 -6 26 -5 20 10 -6 16 -2 17 35 12 23 -3 42 -1 42 4
0 5 -6 9 -14 9 -15 0 -80 50 -73 56 2 2 21 -6 44 -17 39 -19 42 -19 77 -2 40
20 46 33 14 33 -27 0 -148 57 -148 70 0 5 13 7 32 3 l32 -6 -34 31 c-42 37
-35 51 11 23 40 -25 50 -26 43 -6 -9 21 3 19 40 -10 37 -28 56 -33 31 -9 -23
23 -5 37 29 24 40 -15 51 -12 34 8 -17 19 -30 62 -19 62 4 0 12 -5 19 -12 7
-7 12 -8 12 -2 0 6 -5 15 -11 21 -6 6 -13 32 -15 58 -2 42 -1 46 17 42 15 -4
19 0 19 18 0 13 5 27 10 30 5 3 10 1 10 -4 0 -6 5 -11 10 -11 6 0 10 12 10 28
1 25 2 26 14 9 12 -16 14 -16 20 -2 9 25 26 7 26 -28 0 -25 3 -28 10 -17 18
27 31 -9 25 -65 -6 -46 -5 -48 9 -30 22 30 30 11 11 -27 -11 -20 -12 -28 -4
-21 7 7 17 13 21 13 11 0 2 -48 -13 -66 -14 -17 -13 -17 28 -5 39 11 56 -5 28
-26 -11 -7 -14 -13 -7 -13 6 0 28 15 48 33 34 29 37 30 32 9 -7 -27 -2 -27 41
-1 46 28 53 14 12 -23 l-35 -31 38 7 c47 9 46 -13 -1 -29 -16 -6 -36 -15 -44
-22 -8 -7 -34 -15 -57 -19 -23 -4 -42 -9 -42 -13 0 -3 16 -14 34 -23 36 -18
65 -15 105 11 21 13 23 13 19 1 -2 -8 -22 -25 -44 -37 l-39 -23 44 0 c37 0 42
-2 31 -15 -19 -23 17 -20 58 5 39 24 42 24 42 5 0 -8 -19 -28 -42 -45 -24 -18
-34 -30 -25 -30 29 0 18 -28 -15 -39 -17 -6 -29 -14 -25 -17 3 -3 20 1 38 10
37 18 54 11 24 -9 -33 -23 -45 -35 -45 -46 0 -5 10 -3 23 5 25 16 87 19 87 5
0 -6 -5 -19 -10 -30 -8 -15 -7 -19 4 -19 25 0 29 -20 6 -28 -19 -7 -17 -10 21
-31 41 -23 41 -23 34 -2 -9 28 6 27 35 -4 29 -31 40 -32 33 -4 -5 19 -3 21 20
16 14 -4 32 -10 40 -13 12 -4 11 3 -5 36 -24 47 -18 62 13 34 l21 -19 -20 34
c-15 24 -19 44 -15 70 7 44 11 50 23 31 7 -11 10 -6 10 18 0 34 8 40 28 20 9
-9 12 -6 12 15 0 15 5 27 10 27 6 0 10 -8 10 -17 1 -17 1 -17 11 0 15 26 29
21 29 -12 0 -21 5 -28 18 -27 14 1 17 -8 17 -52 -1 -46 1 -51 12 -36 20 28 29
6 11 -27 -17 -29 -12 -39 9 -18 7 7 10 3 11 -15 0 -14 -7 -31 -14 -37 -16 -13
-19 -33 -3 -24 16 11 69 17 69 9 0 -4 -8 -16 -17 -27 -18 -19 -17 -20 7 -7 14
7 35 22 48 33 19 18 22 18 22 4 0 -21 14 -21 46 -1 39 26 43 5 5 -27 l-34 -28
36 6 c20 3 37 1 37 -4 0 -13 -108 -60 -155 -68 l-40 -7 39 -19 c48 -23 74 -24
104 -3 13 9 25 14 28 11 5 -5 -23 -29 -62 -54 -16 -10 -13 -12 25 -12 37 -1
42 -3 31 -16 -9 -11 -9 -15 -1 -15 22 0 72 31 66 40 -13 21 6 30 33 16 15 -7
32 -11 39 -9 7 2 21 -1 32 -7 36 -19 24 10 -19 47 -22 19 -40 41 -40 49 0 18
4 18 43 -2 l32 -16 -33 32 c-23 23 -29 36 -21 41 7 4 9 14 6 23 -8 21 18 32
38 16 12 -10 14 85 15 717 l0 728 -32 11 c-18 6 -42 15 -53 19 -18 8 -19 7 -6
-9 8 -9 31 -26 50 -36 l36 -19 -42 -1 c-35 0 -41 -3 -36 -16 5 -13 2 -15 -18
-9 -13 4 -35 16 -48 26 -13 10 -27 16 -32 13 -15 -9 11 -44 48 -67 34 -20 35
-21 14 -29 -28 -10 -19 -25 22 -37 31 -9 31 -9 5 -10 -15 -1 -30 4 -33 9 -8
13 -25 13 -25 0 0 -6 11 -16 25 -22 14 -6 25 -17 25 -25 0 -11 -4 -11 -22 1
-24 15 -78 11 -78 -6 0 -5 5 -18 10 -29 9 -16 7 -19 -10 -19 -29 0 -20 -23 11
-31 13 -3 23 -11 22 -17 -2 -6 13 -16 31 -22 20 -6 36 -19 39 -31 4 -15 2 -19
-10 -15 -8 3 -19 6 -24 6 -6 0 -8 4 -5 8 8 13 -114 9 -122 -4 -9 -14 -81 -38
-89 -30 -4 3 -1 6 6 6 19 0 101 62 101 76 0 9 -17 5 -56 -13 -30 -14 -58 -22
-61 -19 -4 3 -2 6 4 6 16 0 65 49 58 59 -3 5 13 20 35 32 43 24 56 55 19 46
-20 -5 -20 -5 -4 13 20 22 4 36 -23 21 -11 -6 -22 -8 -25 -5 -3 3 -15 0 -27
-6 -14 -8 -26 -8 -32 -2 -6 6 2 14 22 22 33 14 63 48 54 62 -3 4 -15 3 -27 -3
-21 -11 -21 -11 -6 7 27 31 14 89 -15 65 -11 -9 -15 -7 -19 11 -4 13 -2 27 3
32 14 14 12 26 -5 26 -11 0 -12 5 -5 26 6 14 10 49 10 77 -1 45 -2 50 -14 35
-7 -10 -18 -18 -23 -18 -6 0 -16 -7 -23 -15 -21 -25 -43 -19 -36 10 4 14 2 25
-3 25 -5 0 -9 17 -9 38 1 62 -1 70 -22 77 -22 7 -60 -2 -59 -13 1 -4 0 -11 -1
-17 -1 -5 -1 -27 0 -47 1 -22 -3 -38 -9 -38 -7 0 -9 -10 -5 -25 6 -24 4 -25
-25 -20 -25 4 -31 2 -31 -12 0 -15 -4 -13 -20 7 -24 31 -38 19 -20 -17 7 -16
13 -32 11 -37 -1 -4 4 -14 10 -22 10 -12 9 -13 -5 -8 -21 8 -21 -4 1 -28 9
-11 11 -18 5 -18 -7 0 -11 -6 -9 -12 1 -8 -8 -12 -24 -11 -22 1 -28 -4 -32
-25 -3 -17 1 -34 11 -46 16 -18 16 -18 -5 -7 -12 6 -24 8 -27 3 -7 -11 16 -37
53 -60 34 -21 27 -41 -9 -22 -11 6 -25 8 -31 4 -6 -3 -13 3 -16 15 -7 29 -18
27 -66 -14 -41 -36 -69 -45 -64 -22 1 7 -12 13 -35 15 -21 2 -38 7 -38 13 0 5
-12 9 -27 9 -36 1 -13 15 40 24 20 4 37 11 37 16 0 6 12 10 26 10 16 0 24 5
21 13 -2 6 9 16 24 22 34 12 38 29 9 33 -19 3 -19 5 -5 25 8 12 15 27 15 33 0
17 -70 15 -97 -2 -23 -14 -29 -9 -15 12 4 6 17 16 30 23 12 6 22 19 22 27 0
13 -2 13 -22 0 -12 -9 -34 -16 -48 -15 -20 1 -18 3 13 11 26 7 37 15 37 29 0
11 -7 19 -17 19 -16 1 -15 2 2 12 32 17 75 61 75 75 0 18 -16 16 -48 -6 -15
-11 -38 -22 -50 -26 -21 -6 -23 -4 -17 15 7 21 5 21 -41 14 -34 -5 -45 -4 -40
5 4 6 13 11 21 11 16 0 75 48 75 61 0 5 -15 0 -32 -11 -41 -25 -74 -25 -124
-1 l-39 19 40 7 c51 8 176 67 171 80 -4 11 -7 11 -49 1 -26 -6 -26 -6 10 28
45 41 38 57 -10 27 -42 -26 -47 -26 -47 -1 0 27 -6 25 -42 -10 -16 -17 -35
-30 -41 -30 -8 0 -7 4 1 12 7 7 12 18 12 26 0 14 -14 13 -75 -5 -19 -5 -19 -4
-4 13 19 22 34 74 21 74 -4 0 -13 -5 -20 -12 -14 -14 -17 3 -3 18 18 19 23 54
8 54 -8 0 -19 -10 -24 -22 -8 -18 -10 -9 -6 38 4 43 2 64 -7 69 -7 4 -16 2
-21 -6 -6 -10 -9 -2 -9 22 0 43 -8 53 -28 36 -12 -9 -16 -9 -19 1 -9 24 -23
12 -23 -19 0 -28 -2 -30 -16 -18 -13 10 -17 10 -25 -2 -5 -8 -9 -20 -9 -26 0
-7 -6 -13 -14 -13 -22 0 -25 -76 -4 -111 18 -29 18 -30 -1 -19 -11 5 -22 10
-24 10 -10 0 7 -56 22 -74 17 -20 22 -20 -48 -1 -25 7 -36 -11 -19 -32 11 -14
11 -15 -7 -6 -11 6 -29 21 -39 32 -24 27 -40 27 -33 1 6 -25 4 -25 -44 2 -54
30 -62 13 -14 -29 34 -30 36 -34 15 -28 -36 11 -44 11 -50 0 -7 -14 87 -62
150 -75 l54 -12 -39 -19 c-50 -25 -80 -24 -123 3 -44 27 -40 2 5 -27 73 -47
72 -46 20 -40 -47 6 -49 6 -42 -15 6 -19 4 -21 -17 -15 -12 4 -35 15 -50 26
-27 19 -48 25 -48 13 0 -16 25 -46 56 -68 30 -20 33 -25 17 -31 -10 -5 -22 -9
-28 -9 -5 -1 -47 -16 -92 -34 -89 -35 -127 -42 -77 -14 71 40 126 84 116 94
-7 7 -24 4 -54 -10 -24 -11 -54 -23 -68 -27 -23 -6 -24 -5 -5 6 27 17 61 61
57 75 -1 7 7 15 18 19 26 8 80 54 80 67 0 6 -12 8 -32 4 l-32 -6 23 24 c26 27
14 43 -20 26 -11 -6 -26 -9 -34 -7 -7 3 -22 -1 -34 -9 -20 -14 -41 -12 -41 5
0 4 16 15 35 24 37 18 71 60 60 77 -4 7 -14 5 -28 -5 -33 -23 -43 -18 -13 6
23 18 26 26 20 53 -9 43 -14 49 -30 35 -12 -10 -17 -8 -29 7 -12 16 -11 21 2
36 17 19 8 42 -13 34 -12 -4 -12 -2 -4 15 15 27 24 169 11 169 -5 0 -13 -9
-16 -21 -4 -12 -12 -18 -21 -15 -8 3 -24 -5 -36 -19 -26 -30 -51 -17 -42 21 4
15 2 24 -6 24 -8 0 -9 10 -5 30 l7 30 -57 0 -57 0 4 -30z m-167 -660 c3 -6 -1
-7 -9 -4 -18 7 -21 14 -7 14 6 0 13 -4 16 -10z m540 -206 c14 -3 22 -12 21
-22 -4 -22 -27 -28 -38 -9 -5 9 -14 15 -21 13 -6 -1 -8 -1 -4 2 4 2 2 11 -5
20 -11 14 -10 15 5 9 11 -4 29 -10 42 -13z m928 -174 c27 -16 35 -27 32 -45
-1 -14 2 -25 8 -25 6 0 8 -3 5 -6 -4 -3 -20 2 -37 10 -22 12 -32 13 -37 4 -4
-6 -2 -14 4 -16 20 -6 13 -22 -10 -22 -22 -1 -23 -1 -4 -15 26 -19 5 -19 -41
0 -39 17 -52 13 -34 -9 13 -16 -5 -27 -42 -25 l-22 0 23 11 c12 6 22 18 22 26
0 10 -6 12 -22 7 -13 -4 -36 -9 -53 -12 -29 -5 -29 -5 -10 11 11 8 40 16 64
16 34 0 51 7 78 30 18 17 38 30 43 30 6 0 10 5 10 11 0 7 -14 10 -36 7 l-35
-4 23 18 c29 22 30 22 71 -2z"/>
<path d="M2460 1906 c0 -8 15 -24 33 -35 l32 -22 -39 7 c-30 5 -38 4 -34 -7 2
-7 17 -17 34 -22 16 -6 31 -13 34 -17 3 -3 13 -9 23 -13 15 -6 17 1 17 53 0
32 -4 62 -10 65 -5 3 -10 -4 -10 -15 l0 -22 -36 21 c-42 25 -44 25 -44 7z"/>
<path d="M0 525 c0 -20 17 -28 36 -17 17 9 13 14 -18 25 -12 4 -18 1 -18 -8z"/>
<path d="M505 500 c-3 -5 1 -10 10 -10 9 0 13 5 10 10 -3 6 -8 10 -10 10 -2 0
-7 -4 -10 -10z"/>
<path d="M1045 493 c-20 -15 -19 -15 5 -9 14 3 31 6 38 6 7 0 10 5 7 10 -9 14
-27 12 -50 -7z"/>
<path d="M1075 452 c6 -6 24 -13 40 -17 21 -4 25 -3 15 3 -24 15 -67 26 -55
14z"/>
<path d="M485 424 c-22 -13 -39 -29 -37 -35 2 -7 -5 -20 -14 -30 -15 -17 -15
-19 -1 -25 8 -3 29 2 46 10 37 20 41 20 41 1 0 -10 10 -15 33 -15 l32 0 -42
26 c-48 28 -59 53 -13 29 37 -19 59 -19 101 2 l34 17 -35 9 c-19 4 -48 15 -63
23 -36 18 -34 18 -82 -12z"/>
<path d="M1030 441 c0 -5 -25 -15 -55 -21 -30 -6 -55 -13 -55 -15 0 -6 63 -35
77 -35 7 0 13 8 13 18 0 24 53 27 86 6 21 -14 22 -14 17 5 -3 12 -11 21 -18
21 -7 0 -18 7 -25 15 -14 17 -40 20 -40 6z"/>
<path d="M384 314 c-18 -14 -18 -15 4 -4 12 6 22 13 22 15 0 8 -5 6 -26 -11z"/>
<path d="M490 310 c0 -5 5 -10 10 -10 6 0 10 5 10 10 0 6 -4 10 -10 10 -5 0
-10 -4 -10 -10z"/>
<path d="M1770 296 c0 -10 -22 -18 -112 -43 -10 -2 -18 -8 -18 -13 0 -4 8 -6
19 -3 10 3 22 0 25 -6 4 -6 20 -11 37 -11 19 0 29 -5 29 -15 0 -12 4 -13 25
-3 25 11 34 28 15 28 -5 0 -10 5 -10 11 0 7 10 9 25 7 32 -7 31 -2 -5 32 -16
15 -30 23 -30 16z"/>
<path d="M408 262 c-42 -25 -34 -33 17 -15 25 8 42 19 39 24 -7 13 -25 10 -56
-9z"/>
<path d="M1105 250 c28 -12 67 -12 60 0 -3 6 -23 10 -43 9 -30 0 -33 -2 -17
-9z"/>
<path d="M1821 179 l-21 -17 31 -16 c40 -20 56 -20 98 3 l33 18 -60 14 c-55
14 -62 14 -81 -2z"/>
<path d="M1775 150 c-3 -5 -1 -10 4 -10 6 0 11 5 11 10 0 6 -2 10 -4 10 -3 0
-8 -4 -11 -10z"/>
<path d="M1780 98 c-19 -21 -20 -23 -3 -30 28 -11 36 -9 29 7 -4 12 4 15 37
15 41 1 42 1 17 15 -35 20 -56 18 -80 -7z"/>
<path d="M1666 65 c-14 -11 -16 -15 -5 -15 28 0 59 12 53 21 -8 13 -26 11 -48
-6z"/>
<path d="M1710 30 c-12 -8 -9 -10 12 -10 15 0 30 5 33 10 8 13 -25 13 -45 0z"/>
<path d="M2404 26 c-17 -13 -16 -15 18 -21 52 -10 64 -3 30 17 -25 15 -32 15
-48 4z"/>
<path d="M1088 23 c6 -2 18 -2 25 0 6 3 1 5 -13 5 -14 0 -19 -2 -12 -5z"/>
</g>
</svg>
